<?xml version="1.0" encoding="UTF-8" standalone="no"?>
<!DOCTYPE svg PUBLIC "-//W3C//DTD SVG 1.1//EN"
 "http://www.w3.org/Graphics/SVG/1.1/DTD/svg11.dtd">
<!-- Generated by graphviz version 5.0.0 (20220707.1540)
 -->
<!-- Title: dependency&#45;cruiser output Pages: 1 -->
<svg width="325pt" height="285pt"
 viewBox="0.00 0.00 324.58 285.40" xmlns="http://www.w3.org/2000/svg" xmlns:xlink="http://www.w3.org/1999/xlink">
<g id="graph0" class="graph" transform="scale(1 1) rotate(0) translate(4 281.4)">
<title>dependency&#45;cruiser output</title>
<polygon fill="white" stroke="transparent" points="-4,4 -4,-281.4 320.58,-281.4 320.58,4 -4,4"/>
<g id="clust1" class="cluster">
<title>cluster_..</title>
<path fill="#ffffff" stroke="black" stroke-width="2" d="M213.54,-150.4C213.54,-150.4 296.58,-150.4 296.58,-150.4 302.58,-150.4 308.58,-156.4 308.58,-162.4 308.58,-162.4 308.58,-257.4 308.58,-257.4 308.58,-263.4 302.58,-269.4 296.58,-269.4 296.58,-269.4 213.54,-269.4 213.54,-269.4 207.54,-269.4 201.54,-263.4 201.54,-257.4 201.54,-257.4 201.54,-162.4 201.54,-162.4 201.54,-156.4 207.54,-150.4 213.54,-150.4"/>
<text text-anchor="middle" x="255.06" y="-257.3" font-family="Helvetica,sans-Serif" font-weight="bold" font-size="9.00">..</text>
</g>
<g id="clust2" class="cluster">
<title>cluster_../models</title>
<path fill="#ffffff" stroke="black" stroke-width="2" d="M221.54,-158.4C221.54,-158.4 288.58,-158.4 288.58,-158.4 294.58,-158.4 300.58,-164.4 300.58,-170.4 300.58,-170.4 300.58,-230.4 300.58,-230.4 300.58,-236.4 294.58,-242.4 288.58,-242.4 288.58,-242.4 221.54,-242.4 221.54,-242.4 215.54,-242.4 209.54,-236.4 209.54,-230.4 209.54,-230.4 209.54,-170.4 209.54,-170.4 209.54,-164.4 215.54,-158.4 221.54,-158.4"/>
<text text-anchor="middle" x="255.06" y="-230.3" font-family="Helvetica,sans-Serif" font-weight="bold" font-size="9.00">models</text>
</g>
<g id="clust3" class="cluster">
<title>cluster_src</title>
<path fill="#ffffff" stroke="black" stroke-width="2" d="M20,-51.4C20,-51.4 181.54,-51.4 181.54,-51.4 187.54,-51.4 193.54,-57.4 193.54,-63.4 193.54,-63.4 193.54,-153.4 193.54,-153.4 193.54,-159.4 187.54,-165.4 181.54,-165.4 181.54,-165.4 20,-165.4 20,-165.4 14,-165.4 8,-159.4 8,-153.4 8,-153.4 8,-63.4 8,-63.4 8,-57.4 14,-51.4 20,-51.4"/>
<text text-anchor="middle" x="100.77" y="-153.3" font-family="Helvetica,sans-Serif" font-weight="bold" font-size="9.00">src</text>
</g>
<g id="clust4" class="cluster">
<title>cluster_src/scripts</title>
<path fill="#ffffff" stroke="black" stroke-width="2" d="M28,-85.4C28,-85.4 173.54,-85.4 173.54,-85.4 179.54,-85.4 185.54,-91.4 185.54,-97.4 185.54,-97.4 185.54,-126.4 185.54,-126.4 185.54,-132.4 179.54,-138.4 173.54,-138.4 173.54,-138.4 28,-138.4 28,-138.4 22,-138.4 16,-132.4 16,-126.4 16,-126.4 16,-97.4 16,-97.4 16,-91.4 22,-85.4 28,-85.4"/>
<text text-anchor="middle" x="100.77" y="-126.3" font-family="Helvetica,sans-Serif" font-weight="bold" font-size="9.00">scripts</text>
</g>
<!-- ../models/Lead -->
<g id="node1" class="node">
<title>../models/Lead</title>
<g id="a_node1"><a xlink:title="Lead">
<path fill="#ffffcc" stroke="black" d="M286.4,-215.7C286.4,-215.7 223.73,-215.7 223.73,-215.7 220.63,-215.7 217.53,-212.6 217.53,-209.5 217.53,-209.5 217.53,-203.3 217.53,-203.3 217.53,-200.2 220.63,-197.1 223.73,-197.1 223.73,-197.1 286.4,-197.1 286.4,-197.1 289.5,-197.1 292.6,-200.2 292.6,-203.3 292.6,-203.3 292.6,-209.5 292.6,-209.5 292.6,-212.6 289.5,-215.7 286.4,-215.7"/>
<text text-anchor="middle" x="255.06" y="-203.7" font-family="Helvetica,sans-Serif" font-size="9.00">../models/Lead</text>
</a>
</g>
</g>
<!-- ../models/User -->
<g id="node2" class="node">
<title>../models/User</title>
<g id="a_node2"><a xlink:title="User">
<path fill="#ffffcc" stroke="black" d="M285.88,-184.7C285.88,-184.7 224.25,-184.7 224.25,-184.7 221.15,-184.7 218.05,-181.6 218.05,-178.5 218.05,-178.5 218.05,-172.3 218.05,-172.3 218.05,-169.2 221.15,-166.1 224.25,-166.1 224.25,-166.1 285.88,-166.1 285.88,-166.1 288.98,-166.1 292.08,-169.2 292.08,-172.3 292.08,-172.3 292.08,-178.5 292.08,-178.5 292.08,-181.6 288.98,-184.7 285.88,-184.7"/>
<text text-anchor="middle" x="255.06" y="-172.7" font-family="Helvetica,sans-Serif" font-size="9.00">../models/User</text>
</a>
</g>
</g>
<!-- csv&#45;parse -->
<g id="node3" class="node">
<title>csv&#45;parse</title>
<g id="a_node3"><a xlink:title="csv&#45;parse">
<path fill="#ffffcc" stroke="black" d="M276.37,-142.7C276.37,-142.7 233.75,-142.7 233.75,-142.7 230.65,-142.7 227.55,-139.6 227.55,-136.5 227.55,-136.5 227.55,-130.3 227.55,-130.3 227.55,-127.2 230.65,-124.1 233.75,-124.1 233.75,-124.1 276.37,-124.1 276.37,-124.1 279.47,-124.1 282.57,-127.2 282.57,-130.3 282.57,-130.3 282.57,-136.5 282.57,-136.5 282.57,-139.6 279.47,-142.7 276.37,-142.7"/>
<text text-anchor="middle" x="255.06" y="-130.7" font-family="Helvetica,sans-Serif" font-size="9.00">csv&#45;parse</text>
</a>
</g>
</g>
<!-- dotenv -->
<g id="node4" class="node">
<title>dotenv</title>
<g id="a_node4"><a xlink:title="dotenv">
<path fill="#ffffcc" stroke="black" d="M275.86,-111.7C275.86,-111.7 234.26,-111.7 234.26,-111.7 231.16,-111.7 228.06,-108.6 228.06,-105.5 228.06,-105.5 228.06,-99.3 228.06,-99.3 228.06,-96.2 231.16,-93.1 234.26,-93.1 234.26,-93.1 275.86,-93.1 275.86,-93.1 278.96,-93.1 282.06,-96.2 282.06,-99.3 282.06,-99.3 282.06,-105.5 282.06,-105.5 282.06,-108.6 278.96,-111.7 275.86,-111.7"/>
<text text-anchor="middle" x="255.06" y="-99.7" font-family="Helvetica,sans-Serif" font-size="9.00">dotenv</text>
</a>
</g>
</g>
<!-- fs -->
<g id="node5" class="node">
<title>fs</title>
<g id="a_node5"><a xlink:href="https://nodejs.org/api/fs.html" xlink:title="fs">
<path fill="#ffffcc" stroke="grey" d="M275.86,-80.7C275.86,-80.7 234.26,-80.7 234.26,-80.7 231.16,-80.7 228.06,-77.6 228.06,-74.5 228.06,-74.5 228.06,-68.3 228.06,-68.3 228.06,-65.2 231.16,-62.1 234.26,-62.1 234.26,-62.1 275.86,-62.1 275.86,-62.1 278.96,-62.1 282.06,-65.2 282.06,-68.3 282.06,-68.3 282.06,-74.5 282.06,-74.5 282.06,-77.6 278.96,-80.7 275.86,-80.7"/>
<text text-anchor="middle" x="255.06" y="-68.7" font-family="Helvetica,sans-Serif" font-size="9.00" fill="grey">fs</text>
</a>
</g>
</g>
<!-- mongoose -->
<g id="node6" class="node">
<title>mongoose</title>
<g id="a_node6"><a xlink:title="mongoose">
<path fill="#ffffcc" stroke="black" d="M277.89,-49.7C277.89,-49.7 232.23,-49.7 232.23,-49.7 229.13,-49.7 226.03,-46.6 226.03,-43.5 226.03,-43.5 226.03,-37.3 226.03,-37.3 226.03,-34.2 229.13,-31.1 232.23,-31.1 232.23,-31.1 277.89,-31.1 277.89,-31.1 280.99,-31.1 284.09,-34.2 284.09,-37.3 284.09,-37.3 284.09,-43.5 284.09,-43.5 284.09,-46.6 280.99,-49.7 277.89,-49.7"/>
<text text-anchor="middle" x="255.06" y="-37.7" font-family="Helvetica,sans-Serif" font-size="9.00">mongoose</text>
</a>
</g>
</g>
<!-- path -->
<g id="node7" class="node">
<title>path</title>
<g id="a_node7"><a xlink:href="https://nodejs.org/api/path.html" xlink:title="path">
<path fill="#ffffcc" stroke="grey" d="M275.86,-18.7C275.86,-18.7 234.26,-18.7 234.26,-18.7 231.16,-18.7 228.06,-15.6 228.06,-12.5 228.06,-12.5 228.06,-6.3 228.06,-6.3 228.06,-3.2 231.16,-0.1 234.26,-0.1 234.26,-0.1 275.86,-0.1 275.86,-0.1 278.96,-0.1 282.06,-3.2 282.06,-6.3 282.06,-6.3 282.06,-12.5 282.06,-12.5 282.06,-15.6 278.96,-18.7 275.86,-18.7"/>
<text text-anchor="middle" x="255.06" y="-6.7" font-family="Helvetica,sans-Serif" font-size="9.00" fill="grey">path</text>
</a>
</g>
</g>
<!-- src/index.ts -->
<g id="node8" class="node">
<title>src/index.ts</title>
<g id="a_node8"><a xlink:href="src/index.ts" xlink:title="index.ts">
<path fill="#ccffcc" stroke="black" d="M125.09,-77.7C125.09,-77.7 76.46,-77.7 76.46,-77.7 73.36,-77.7 70.26,-74.6 70.26,-71.5 70.26,-71.5 70.26,-65.3 70.26,-65.3 70.26,-62.2 73.36,-59.1 76.46,-59.1 76.46,-59.1 125.09,-59.1 125.09,-59.1 128.19,-59.1 131.29,-62.2 131.29,-65.3 131.29,-65.3 131.29,-71.5 131.29,-71.5 131.29,-74.6 128.19,-77.7 125.09,-77.7"/>
<text text-anchor="middle" x="100.77" y="-65.7" font-family="Helvetica,sans-Serif" font-size="9.00">src/index.ts</text>
</a>
</g>
</g>
<!-- src/scripts/import&#45;nextgen&#45;today.ts -->
<g id="node9" class="node">
<title>src/scripts/import&#45;nextgen&#45;today.ts</title>
<g id="a_node9"><a xlink:href="src/scripts/import-nextgen-today.ts" xlink:title="import&#45;nextgen&#45;today.ts">
<path fill="#ddfeff" stroke="black" d="M171.12,-111.7C171.12,-111.7 30.43,-111.7 30.43,-111.7 27.33,-111.7 24.23,-108.6 24.23,-105.5 24.23,-105.5 24.23,-99.3 24.23,-99.3 24.23,-96.2 27.33,-93.1 30.43,-93.1 30.43,-93.1 171.12,-93.1 171.12,-93.1 174.22,-93.1 177.32,-96.2 177.32,-99.3 177.32,-99.3 177.32,-105.5 177.32,-105.5 177.32,-108.6 174.22,-111.7 171.12,-111.7"/>
<text text-anchor="middle" x="100.77" y="-99.7" font-family="Helvetica,sans-Serif" font-size="9.00">src/scripts/import&#45;nextgen&#45;today.ts</text>
</a>
</g>
</g>
<!-- src/scripts/import&#45;nextgen&#45;today.ts&#45;&gt;../models/Lead -->
<g id="edge1" class="edge">
<title>src/scripts/import&#45;nextgen&#45;today.ts&#45;&gt;../models/Lead</title>
<path fill="none" stroke="#000000" stroke-width="2" stroke-opacity="0.200000" d="M109.85,-111.82C125.68,-129.69 162.62,-168.67 201.54,-190.4 204.77,-192.2 208.22,-193.82 211.75,-195.28"/>
<polygon fill="#000000" fill-opacity="0.200000" stroke="#000000" stroke-width="2" stroke-opacity="0.200000" points="211,-197.24 217.35,-197.43 212.5,-193.32 211,-197.24"/>
</g>
<!-- src/scripts/import&#45;nextgen&#45;today.ts&#45;&gt;../models/User -->
<g id="edge2" class="edge">
<title>src/scripts/import&#45;nextgen&#45;today.ts&#45;&gt;../models/User</title>
<path fill="none" stroke="#000000" stroke-width="2" stroke-opacity="0.200000" d="M121.37,-111.79C148.78,-124.93 198.6,-148.81 228.78,-163.28"/>
<polygon fill="#000000" fill-opacity="0.200000" stroke="#000000" stroke-width="2" stroke-opacity="0.200000" points="228.22,-165.34 234.54,-166.04 230.04,-161.55 228.22,-165.34"/>
</g>
<!-- src/scripts/import&#45;nextgen&#45;today.ts&#45;&gt;csv&#45;parse -->
<g id="edge3" class="edge">
<title>src/scripts/import&#45;nextgen&#45;today.ts&#45;&gt;csv&#45;parse</title>
<path fill="none" stroke="#000000" stroke-width="2" stroke-opacity="0.200000" d="M147.88,-111.79C171.46,-116.59 199.63,-122.32 221.02,-126.67"/>
<polygon fill="#000000" fill-opacity="0.200000" stroke="#000000" stroke-width="2" stroke-opacity="0.200000" points="220.85,-128.78 227.15,-127.92 221.69,-124.67 220.85,-128.78"/>
</g>
<!-- src/scripts/import&#45;nextgen&#45;today.ts&#45;&gt;dotenv -->
<g id="edge4" class="edge">
<title>src/scripts/import&#45;nextgen&#45;today.ts&#45;&gt;dotenv</title>
<path fill="none" stroke="#000000" stroke-width="2" stroke-opacity="0.200000" d="M177.47,-102.4C193.12,-102.4 208.8,-102.4 221.86,-102.4"/>
<polygon fill="#000000" fill-opacity="0.200000" stroke="#000000" stroke-width="2" stroke-opacity="0.200000" points="222.05,-104.5 228.05,-102.4 222.05,-100.3 222.05,-104.5"/>
</g>
<!-- src/scripts/import&#45;nextgen&#45;today.ts&#45;&gt;fs -->
<g id="edge5" class="edge">
<title>src/scripts/import&#45;nextgen&#45;today.ts&#45;&gt;fs</title>
<path fill="none" stroke="#000000" stroke-dasharray="5,2" stroke-opacity="0.200000" d="M174.59,-93.1C181.02,-91.97 187.41,-90.74 193.54,-89.4 199.24,-88.16 210.67,-84.83 222.07,-81.38"/>
<polygon fill="#000000" fill-opacity="0.200000" stroke="#000000" stroke-opacity="0.200000" points="222.87,-83.33 228,-79.57 221.65,-79.31 222.87,-83.33"/>
</g>
<!-- src/scripts/import&#45;nextgen&#45;today.ts&#45;&gt;mongoose -->
<g id="edge6" class="edge">
<title>src/scripts/import&#45;nextgen&#45;today.ts&#45;&gt;mongoose</title>
<path fill="none" stroke="#000000" stroke-width="2" stroke-opacity="0.200000" d="M177.34,-99.49C183.26,-97.02 188.78,-93.73 193.54,-89.4 204.72,-79.26 191.19,-67.38 201.54,-56.4 206.5,-51.15 213.13,-47.6 220,-45.21"/>
<polygon fill="#000000" fill-opacity="0.200000" stroke="#000000" stroke-width="2" stroke-opacity="0.200000" points="220.65,-47.21 225.79,-43.47 219.44,-43.19 220.65,-47.21"/>
</g>
<!-- src/scripts/import&#45;nextgen&#45;today.ts&#45;&gt;path -->
<g id="edge7" class="edge">
<title>src/scripts/import&#45;nextgen&#45;today.ts&#45;&gt;path</title>
<path fill="none" stroke="#000000" stroke-dasharray="5,2" stroke-opacity="0.200000" d="M177.45,-100.25C183.42,-97.63 188.92,-94.1 193.54,-89.4 213.65,-68.97 183.08,-47.33 201.54,-25.4 206.73,-19.24 214.21,-15.4 221.91,-13.03"/>
<polygon fill="#000000" fill-opacity="0.200000" stroke="#000000" stroke-opacity="0.200000" points="222.53,-15.04 227.8,-11.48 221.47,-10.97 222.53,-15.04"/>
</g>
</g>
</svg>
